<?xml version="1.0"?>
<svg xmlns="http://www.w3.org/2000/svg" id="Layer_1" data-name="Layer 1" viewBox="0 0 512 512" width="512" height="512"><title>Placeholder</title><path d="M256,17.68c112.43,0,203.93,87.31,203.93,194.96C459.93,363.95,256,494.32,256,494.32S52.07,363.95,52.07,212.64C52.07,104.99,143.57,17.68,256,17.68ZM404.89,218.01A148.89,148.89,0,1,0,256,366.91,148.89,148.89,0,0,0,404.89,218.01Z" style="fill:#f4b844"/><path d="M256,69.12A148.9,148.9,0,1,1,107.11,218.01,148.89,148.89,0,0,1,256,69.12Z" style="fill:#00acea"/><path d="M360.91,220.42a14.857,14.857,0,0,1-3.83,29.21H302.09l-43.34,49.81H227.88l27.39-49.81H211.48a99.5,99.5,0,0,1-39.27-8.07L148.06,231.2V202.57H334.37a13.612,13.612,0,0,1,12.61,8.51,13.528,13.528,0,0,0,3.61,5.1,13.673,13.673,0,0,0,5.5,2.96Z" style="fill:#00efd1"/><polygon points="160.02 171.56 179.44 202.57 148.06 202.57 148.06 171.56 160.02 171.56" style="fill:#00ceb4"/></svg>
